<?xml version="1.0" encoding="UTF-8"?>
<svg id="Camada_1" xmlns="http://www.w3.org/2000/svg" viewBox="0 0 301.86 542.99">
  <defs>
    <style>
      .cls-1 {
        fill: none;
      }

      .cls-2 {
        fill: #8da14e;
      }

      .cls-3 {
        fill: #a7c946;
      }

      .cls-4 {
        fill: #29394d;
      }

      .cls-5 {
        fill: #487fbf;
      }

      .cls-6 {
        fill: #7c9743;
      }

      .cls-7 {
        fill: #737923;
      }

      .cls-8 {
        font-family: NeuropoliticalRg-Regular, 'NeuropoliticalRg Regular';
        font-size: 63.13px;
      }

      .cls-9 {
        fill: #afb83a;
      }

      .cls-10 {
        fill: #98b83a;
      }

      .cls-11 {
        fill: #cae66f;
      }
    </style>
  </defs>
  <g>
    <path class="cls-11" d="M186.73,19.54v41.06c0,10.79-8.75,19.54-19.54,19.54h-7.52c-1.43-.57-2.99-.89-4.63-.89-.98,0-1.94.12-2.85.33-.61.14-1.2.32-1.77.56h-13.21c-10.79,0-19.54-8.74-19.54-19.54V19.54c0-10.79,8.74-19.54,19.54-19.54h29.98c10.79,0,19.54,8.74,19.54,19.54Z"/>
    <path class="cls-3" d="M229.85,144.96c-2.93,1.08-5.34,3.23-6.77,5.98h-62.24v-14.13h49.45c7.64.02,14.56,3.14,19.56,8.16Z"/>
    <path class="cls-3" d="M149.26,136.8v48.04h-29.1v-20.34c0-1.41.1-2.79.31-4.15,1.42-9.46,7.63-17.36,16.08-21.14,3.46-1.55,7.29-2.41,11.32-2.41h1.4Z"/>
    <path class="cls-3" d="M149.26,196.42v58.14h-1.4c-10.08,0-18.89-5.37-23.74-13.41-2.52-4.17-3.97-9.06-3.97-14.29v-30.44h29.1Z"/>
    <path class="cls-3" d="M237.91,168.73v58.14c0,15.3-12.4,27.7-27.7,27.7h-49.37v-10.9h42.13c2.08,4.02,6.29,6.76,11.13,6.76,6.93,0,12.55-5.62,12.55-12.55s-5.62-12.55-12.55-12.55c-4.84,0-9.05,2.74-11.13,6.76h-42.13v-69.56h62.24c.13.27.29.54.45.8,2.21,3.58,6.17,5.96,10.68,5.96,1.29,0,2.53-.2,3.7-.56Z"/>
    <path class="cls-11" d="M142.49,91.8c0,4.85,2.74,9.05,6.76,11.14v7.43h-45.03c-2.08-4.02-6.29-6.76-11.13-6.76-6.94,0-12.55,5.62-12.55,12.55,0,5.43,3.45,10.05,8.27,11.8,1.34.49,2.78.75,4.28.75s2.95-.27,4.28-.75c2.96-1.08,5.41-3.24,6.85-6.01h45.03v23.14c-4.56,9.06-13.93,15.27-24.76,15.27h-52.69c-15.3,0-27.7-12.4-27.7-27.71v-52.68c0-15.3,12.4-27.7,27.7-27.7h52.69c15.17,0,27.49,12.19,27.7,27.31-.61.14-1.2.32-1.77.56-4.64,1.84-7.93,6.37-7.93,11.67Z"/>
    <path class="cls-11" d="M261.32,191.02v52.69c0,15.3-12.4,27.7-27.7,27.7h-44.73c-5.03,0-9.74-1.34-13.8-3.68-5.19-2.99-9.32-7.61-11.69-13.17-1.42-3.34-2.21-7-2.21-10.86v-.05h41.78c2.08,4.02,6.29,6.76,11.13,6.76,6.93,0,12.55-5.62,12.55-12.55s-5.62-12.55-12.55-12.55c-4.84,0-9.05,2.74-11.13,6.76h-41.78v-41.06c0-1.15.07-2.29.21-3.4,1.27-10.33,8.22-18.91,17.64-22.49,3.06-1.17,6.38-1.81,9.86-1.81h34.64c2.21,3.58,6.17,5.96,10.68,5.96,1.29,0,2.53-.2,3.7-.56,2.19-.67,4.12-1.93,5.62-3.58,10.41,3.99,17.79,14.07,17.79,25.88Z"/>
    <path class="cls-10" d="M110.93,121.95c4.11,10.11,14.02,17.24,25.61,17.27h12.72v-17.27h-38.32ZM198.95,21.46h-62.35c-7.32,0-13.98,2.84-18.93,7.48-5.4,5.06-8.77,12.25-8.77,20.23v61.21h40.36v-7.43c-4.02-2.09-6.76-6.29-6.76-11.14,0-5.3,3.28-9.83,7.93-11.67.57-.23,1.16-.42,1.77-.56.91-.21,1.87-.33,2.85-.33,1.63,0,3.2.31,4.63.89,4.64,1.84,7.93,6.37,7.93,11.67,0,4.85-2.74,9.05-6.76,11.14v36.28h38.12c4.04,0,7.87-.86,11.33-2.41,9.65-4.33,16.37-14.02,16.37-25.29v-62.36c0-15.3-12.4-27.7-27.7-27.7Z"/>
    <path class="cls-9" d="M149.26,196.42v94.67h-58.97c-10.81,0-19.57-8.76-19.57-19.57v-65.23c0-1.26.12-2.48.35-3.68,1.83,1.04,3.94,1.63,6.19,1.63,5.26,0,9.76-3.24,11.63-7.82h60.38Z"/>
    <path class="cls-9" d="M175.09,243.66v27.86c0,8.97-6.03,16.53-14.26,18.84v-46.7h14.26Z"/>
    <path class="cls-9" d="M175.09,206.29v25.79h-14.26v-44.63c.19.05.38.11.56.17,7.93,2.5,13.69,9.91,13.69,18.67Z"/>
    <path class="cls-7" d="M149.26,238.9v85.28h-15.62c-11.73,0-21.23-9.51-21.23-21.23v-42.81c0-8.3,4.77-15.49,11.71-18.98,2.86-1.44,6.1-2.25,9.52-2.25h15.62Z"/>
    <path class="cls-7" d="M197.69,260.13v42.81c0,11.73-9.51,21.23-21.23,21.23h-15.62v-80.52h29.01c3.4,2.76,5.92,6.55,7.1,10.9.49,1.78.74,3.64.74,5.57Z"/>
    <path class="cls-6" d="M296.8,108.04v62.35c0,15.3-12.4,27.7-27.71,27.7h-62.35c-15.3,0-27.7-12.4-27.7-27.7v-7.87h44.04c.13.27.29.54.45.8,2.21,3.58,6.17,5.96,10.68,5.96,1.29,0,2.53-.2,3.7-.56,2.19-.67,4.12-1.93,5.62-3.58,2.01-2.22,3.24-5.18,3.24-8.41,0-6.93-5.62-12.55-12.55-12.55-1.53,0-3.01.28-4.37.79-2.93,1.08-5.34,3.23-6.77,5.98h-44.04v-42.9c0-15.3,12.4-27.7,27.7-27.7h62.35c15.3,0,27.71,12.4,27.71,27.7Z"/>
    <path class="cls-2" d="M120.15,148.71v36.13h-32.39c-2.24-3.43-6.11-5.7-10.52-5.7-6.93,0-12.55,5.62-12.55,12.55,0,4.68,2.57,8.76,6.36,10.91h0c1.83,1.04,3.94,1.64,6.19,1.64,5.26,0,9.76-3.24,11.63-7.82h31.27v3.45c0,11.46-9.29,20.75-20.75,20.75h-51.16c-11.46,0-20.75-9.29-20.75-20.75v-51.16c0-10.05,7.13-18.42,16.61-20.34,1.34-.27,2.72-.42,4.14-.42h40.56c1.34.49,2.78.75,4.28.75s2.95-.27,4.28-.75h2.03c11.46,0,20.75,9.29,20.75,20.75Z"/>
    <path class="cls-4" d="M160.84,324.18v4.77c0,3.2-2.59,5.79-5.79,5.79s-5.79-2.59-5.79-5.79v-4.77h11.58Z"/>
    <path class="cls-1" d="M246.77,156.73c0,3.24-1.23,6.19-3.24,8.41-1.5,1.66-3.43,2.91-5.62,3.58-1.17.36-2.41.56-3.7.56-4.52,0-8.48-2.39-10.68-5.96-.16-.26-.32-.53-.45-.8h-62.24v69.56h42.13c2.08-4.02,6.29-6.76,11.13-6.76,6.93,0,12.55,5.62,12.55,12.55s-5.62,12.55-12.55,12.55c-4.84,0-9.05-2.74-11.13-6.76h-42.13v80.52h-11.58v-127.76h-60.38c-1.86,4.59-6.37,7.82-11.63,7.82-2.25,0-4.36-.6-6.19-1.63h0c-3.8-2.16-6.36-6.24-6.36-10.92,0-6.93,5.62-12.55,12.55-12.55,4.4,0,8.28,2.27,10.52,5.7h61.49v-62.89h-45.03c-1.44,2.77-3.89,4.93-6.85,6.01-1.34.49-2.78.75-4.28.75s-2.95-.27-4.28-.75c-4.82-1.75-8.27-6.38-8.27-11.8,0-6.94,5.62-12.55,12.55-12.55,4.84,0,9.05,2.74,11.13,6.76h45.03v-7.43c-4.02-2.09-6.76-6.29-6.76-11.14,0-5.3,3.28-9.83,7.93-11.67.57-.23,1.16-.42,1.77-.56.91-.21,1.87-.33,2.85-.33,1.63,0,3.2.31,4.63.89,4.64,1.84,7.93,6.37,7.93,11.67,0,4.85-2.74,9.05-6.76,11.14v48h62.24c1.42-2.74,3.84-4.89,6.77-5.98,1.36-.51,2.83-.79,4.37-.79,6.93,0,12.55,5.62,12.55,12.55Z"/>
    <path class="cls-4" d="M160.84,324.18v96.77c0,3.2-2.59,5.79-5.79,5.79s-5.79-2.59-5.79-5.79v-96.77h11.58Z"/>
    <path class="cls-4" d="M259.95,348.25H44.45c-3.2,0-5.79-2.59-5.79-5.79s2.59-5.79,5.79-5.79h215.5c3.2,0,5.79,2.59,5.79,5.79s-2.59,5.79-5.79,5.79Z"/>
    <path class="cls-4" d="M105.65,386.39c-1.76,0-3.5-.8-4.64-2.32-1.92-2.56-1.39-6.19,1.17-8.1l47.25-35.32c2.56-1.92,6.19-1.39,8.1,1.17,1.92,2.56,1.39,6.19-1.17,8.1l-47.25,35.32c-1.04.78-2.26,1.15-3.46,1.15Z"/>
    <path class="cls-4" d="M128.58,407.81c-1.69,0-3.36-.73-4.5-2.15-2.01-2.49-1.63-6.13.86-8.14l26.47-21.42c2.49-2.01,6.13-1.63,8.14.86,2.01,2.49,1.63,6.13-.86,8.14l-26.47,21.42c-1.07.87-2.36,1.29-3.64,1.29Z"/>
    <path class="cls-4" d="M205.94,388.21c-1.21,0-2.42-.38-3.46-1.15l-47.25-35.32c-2.56-1.91-3.09-5.54-1.17-8.1,1.91-2.56,5.54-3.09,8.1-1.17l47.25,35.32c2.56,1.91,3.09,5.54,1.17,8.1-1.14,1.52-2.88,2.32-4.64,2.32Z"/>
    <path class="cls-4" d="M183.01,409.63c-1.28,0-2.57-.42-3.64-1.29l-26.47-21.42c-2.49-2.01-2.87-5.66-.86-8.14,2.01-2.49,5.66-2.87,8.14-.86l26.47,21.42c2.49,2.01,2.87,5.66.86,8.14-1.14,1.41-2.82,2.15-4.5,2.15Z"/>
  </g>
  <text class="cls-8" transform="translate(.25 489.03)"><tspan class="cls-4" x="0" y="0">JED</tspan><tspan class="cls-5" x="96.45" y="0" xml:space="preserve">  </tspan><tspan class="cls-6" x="123.22" y="0">GREEN</tspan></text>
</svg>